# xmcd
#
# Track frame offsets:
#	150
#	16435
#	31466
#	48080
#	66964
#	83252
#	97080
#	112191
#	127954
#	146411
#	166826
#	180765
#
# Disc length: 2628 seconds
#
# Revision: 0
# Processed by: cddbd v1.5.2PL0 Copyright (c) Steve Scherf et al.
# Submitted via: EZCDAudioConverter 1.3.4.1
#
DISCID=900a420c
DTITLE=Erkin Koray - Arap Saçi 1/2
DYEAR=1900
DGENRE=
TTITLE0=Mesafeler
TTITLE1=Askimiz Bitecek
TTITLE2=Yagmur
TTITLE3=Silinmeyen Hatiralar
TTITLE4=Istemem
TTITLE5=Sana Birseyler Olmus
TTITLE6=Seni Her Gördügümde
TTITLE7=Aska Inanmiyorum
TTITLE8=Anma Arkadas
TTITLE9=Saskin
TTITLE10=Eyvah
TTITLE11=Fesuphanallah
EXTD=
EXTT0=
EXTT1=
EXTT2=
EXTT3=
EXTT4=
EXTT5=
EXTT6=
EXTT7=
EXTT8=
EXTT9=
EXTT10=
EXTT11=
PLAYORDER=
